<svg width="379" height="44" viewBox="0 0 379 44" fill="none" xmlns="http://www.w3.org/2000/svg">
<path d="M378.286 6.46643H377.066V2.01705H377.003L374.751 5.57655H374.562L372.31 2.01705H372.247V6.46643H371.089V0H372.352L374.688 3.77703H374.709L377.066 0H378.286V6.46643ZM363.198 0.929427V0H369.195V0.929427H366.817V6.46643H365.597V0.929427H363.198Z" fill="black"/>
<g clip-path="url(#clip0_453_112)">
<path d="M85.497 0.980713H93.3753L74.5041 42.5491H64.923L46.0194 0.980713H53.8977L69.6974 36.9341L85.497 0.980713Z" fill="black"/>
<path d="M104.39 42.5491V0.980713H140.462V7.42559H111.363V17.621H138.867V24.0659H111.363V36.115H140.882V42.5599H104.39V42.5491Z" fill="black"/>
<path d="M191.072 0.980713H198.045V42.5491H188.69L161.068 8.86976V42.5491H154.095V0.980713H163.148L191.072 35.1558V0.980713Z" fill="black"/>
<path d="M227.047 42.5491V7.42559H209.017V0.980713H252.137V7.42559H233.988V42.5491H227.058H227.047Z" fill="black"/>
<path d="M283.445 43.3035C280.137 43.3035 277.248 43.0664 274.791 42.603C272.334 42.1395 270.297 41.4713 268.713 40.6092C267.118 39.747 265.835 38.6477 264.865 37.3113C263.895 35.9749 263.205 34.5092 262.817 32.9141C262.429 31.3191 262.235 29.4653 262.235 27.3422V0.980713H269.208V27.353C269.208 29.6486 269.618 31.4699 270.415 32.8063C271.224 34.1427 272.668 35.1558 274.759 35.8348C276.85 36.5138 279.738 36.8586 283.456 36.8586C287.174 36.8586 290.063 36.5138 292.153 35.8132C294.233 35.1235 295.688 34.1104 296.497 32.7848C297.305 31.4592 297.704 29.6486 297.704 27.353V0.980713H304.677V27.353C304.677 30.0042 304.353 32.2675 303.707 34.132C303.06 35.9964 301.961 37.6454 300.387 39.0788C298.825 40.5014 296.637 41.5683 293.835 42.2581C291.033 42.9479 287.573 43.3035 283.456 43.3035H283.445Z" fill="black"/>
<path d="M338.528 43.3035C331.426 43.3035 326.07 42.0426 322.449 39.5099C318.827 36.988 317.017 33.453 317.017 28.905H323.99C323.99 30.3707 324.41 31.6424 325.24 32.7094C326.07 33.7871 327.212 34.6062 328.646 35.1882C330.09 35.7702 331.631 36.1905 333.269 36.4599C334.907 36.7293 336.664 36.8587 338.539 36.8587C344.219 36.8587 348.196 36.3845 350.47 35.4145C352.744 34.4553 353.875 32.8387 353.875 30.5647C353.875 28.8726 353.347 27.6656 352.302 26.9435C351.257 26.2214 349.715 25.7903 347.7 25.6394L331.071 24.3461C326.35 23.9905 322.977 22.8696 320.972 20.9728C318.968 19.076 317.965 16.1984 317.965 12.3293C317.965 4.09542 324.938 -0.0215454 338.96 -0.0215454C345.674 -0.0215454 350.815 1.26096 354.36 3.82598C357.906 6.391 359.684 9.94754 359.684 14.4956H352.712C352.712 13.0299 352.334 11.7581 351.58 10.6696C350.825 9.58111 349.769 8.74047 348.433 8.14771C347.096 7.55496 345.642 7.12386 344.079 6.84365C342.516 6.56344 340.803 6.42333 338.96 6.42333C329.616 6.42333 324.938 8.40637 324.938 12.3724C324.938 14.0429 325.445 15.2608 326.469 16.026C327.492 16.802 329.023 17.2546 331.071 17.4055L347.7 18.6988C350.276 18.9035 352.431 19.3131 354.156 19.949C355.891 20.5848 357.227 21.447 358.186 22.5463C359.146 23.6456 359.825 24.8742 360.213 26.2429C360.601 27.6117 360.795 29.2391 360.795 31.1359C360.795 33.4853 360.299 35.4576 359.297 37.0634C358.294 38.6693 356.807 39.9194 354.802 40.814C352.809 41.7085 350.502 42.3444 347.883 42.7323C345.264 43.1203 342.139 43.3035 338.507 43.3035H338.528Z" fill="black"/>
<path d="M36.0719 7.42559V0.980713H0V7.42559H6.97297H36.0719Z" fill="black"/>
<path d="M6.97297 24.0551H34.4769V17.621H6.97297H0V42.5491H36.4922V36.1042H6.97297V24.0551Z" fill="black"/>
</g>
<defs>
<clipPath id="clip0_453_112">
<rect width="360.805" height="43.3035" fill="white"/>
</clipPath>
</defs>
</svg>
